<?xml version="1.0" standalone="no"?>
<!DOCTYPE svg PUBLIC "-//W3C//DTD SVG 20010904//EN"
 "http://www.w3.org/TR/2001/REC-SVG-20010904/DTD/svg10.dtd">
<svg version="1.0" xmlns="http://www.w3.org/2000/svg"
 width="250.000000pt" height="250.000000pt" viewBox="0 0 250.000000 250.000000"
 preserveAspectRatio="xMidYMid meet">
<metadata>
Created by potrace 1.11, written by Peter Selinger 2001-2013
</metadata>
<g transform="translate(0.000000,250.000000) scale(0.100000,-0.100000)"
fill="#000000" stroke="none">
<path d="M1463 2206 c-4 -5 -6 -39 -5 -75 l2 -66 -23 53 -22 53 -107 -6 c-101
-5 -108 -5 -108 13 0 18 -8 19 -122 16 -68 -1 -183 -3 -256 -3 l-133 -1 3
-432 3 -433 -50 -3 c-27 -2 -66 -7 -85 -11 l-35 -7 3 -124 c1 -69 4 -216 7
-326 l5 -202 -37 -7 -36 -6 38 -39 c36 -37 37 -40 30 -89 -8 -58 -3 -61 50
-29 l37 21 44 -21 c25 -12 47 -22 49 -22 3 0 2 20 -2 45 -3 25 -3 45 1 45 14
0 50 -23 73 -46 24 -24 25 -35 7 -121 -4 -21 -3 -22 23 -11 16 7 39 20 53 29
24 16 27 16 82 -12 l58 -29 -4 27 c-19 104 -20 98 24 133 34 27 50 32 100 34
42 1 60 -2 60 -10 0 -7 -8 -15 -17 -18 -19 -5 -109 -19 -131 -19 -7 0 12 -25
43 -54 53 -51 56 -56 50 -91 -3 -20 -8 -54 -12 -76 l-5 -38 64 36 64 35 67
-33 c38 -19 67 -29 67 -23 0 7 -5 40 -10 74 l-10 62 52 51 c28 27 49 52 47 54
-2 2 -26 7 -54 10 -82 10 -87 12 -97 29 -5 9 -5 17 -1 18 108 10 107 11 157
-35 l47 -44 -10 -58 c-6 -32 -11 -59 -11 -62 0 -2 24 9 53 25 30 17 60 26 68
22 8 -3 34 -17 58 -29 l44 -23 -6 25 c-22 87 -21 97 24 140 32 31 38 42 28 49
-11 7 -11 9 2 9 16 0 42 -23 35 -31 -2 -2 -6 -23 -10 -47 -5 -41 -5 -43 17
-36 12 3 33 14 46 24 23 16 26 16 65 -6 42 -24 72 -31 61 -15 -3 6 -8 28 -11
51 -6 38 -3 45 31 80 40 41 35 50 -30 50 -23 0 -38 6 -44 18 -5 10 -11 157
-13 326 l-3 309 -72 -2 -73 -2 0 455 0 456 -27 1 c-16 0 -81 1 -146 3 -69 1
-121 -2 -124 -8z"/>
</g>
</svg>
